<?xml version="1.0" encoding="utf-8"?>
<!-- Generator: Adobe Illustrator 21.1.0, SVG Export Plug-In . SVG Version: 6.00 Build 0)  -->
<svg version="1.1" id="Layer_1" xmlns="http://www.w3.org/2000/svg" xmlns:xlink="http://www.w3.org/1999/xlink" x="0px" y="0px"
	 viewBox="0 0 208 232" style="enable-background:new 0 0 208 232;" xml:space="preserve">
<style type="text/css">
	.st0{opacity:0.5;fill:#E6E6E6;}
	.st1{fill:#232323;}
	.st2{fill:#FFFFFF;}
</style>
<path class="st0" d="M143.5,147.1C133.4,132.7,97.4,121,63.1,121s-53.8,11.7-43.6,26.1C32.9,166.1,118,199,118,199
	S156.9,166.1,143.5,147.1z"/>
<path class="st1" d="M180,76c0-34.2-27.8-62-62-62S56,41.8,56,76c0,45,62,123,62,123S180,121,180,76z"/>
<g>
	<path class="st2" d="M115.5,99.7H95.4c-3.7,0-6.9-1.3-9.4-3.9c-2.6-2.5-3.9-5.8-3.9-10.1c0-2.5,0.7-4.9,1.9-7.1
		c1.3-2.1,3.3-3.5,5.9-4.2v-0.1c-1.4-0.7-2.6-1.5-3.5-2.3c-1-0.8-1.7-1.6-2.2-2.5c-1-1.8-1.4-3.8-1.4-5.8c0-4,1.2-7.2,3.6-9.6
		c2.4-2.4,5.9-3.7,10.6-3.7h18.5V99.7z M97.8,57c-2.6,0-4.6,0.7-5.8,2c-1.3,1.4-1.9,3.1-1.9,5.1s0.6,3.7,1.9,5
		c1.2,1.4,3.2,2.1,5.8,2.1h10.5V57H97.8z M97.1,77.8c-2.7,0-4.7,0.8-5.9,2.2c-1.3,1.4-1.9,3.2-1.9,5.2c0,2,0.7,3.8,1.9,5.2
		c1.2,1.5,3.2,2.3,5.9,2.3h11.2V77.8C108.3,77.8,97.1,77.8,97.1,77.8z"/>
	<path class="st2" d="M137.9,50.3c1.9,0,3.7,0.2,5.5,0.5c1.8,0.5,3.5,1.4,5.3,2.9c1.5,1.1,2.7,2.7,3.7,4.7s1.5,4.3,1.5,7
		c0,3.7-1.2,7-3.7,10c-2.6,3.2-6.3,4.8-11.2,4.9h-11v41.3h-7.2V50.3H137.9z M127.9,73.3h10.7c2.7,0,4.7-0.9,6.1-2.6
		c1.3-1.6,1.9-3.4,1.9-5.4c0-1.7-0.3-3.1-0.8-4.2c-0.5-1-1.3-1.8-2.3-2.4c-1.5-1-3.2-1.4-5.2-1.4h-10.4V73.3z"/>
</g>
</svg>
