<?xml version="1.0" encoding="utf-8"?>
<!-- Generator: Adobe Illustrator 21.1.0, SVG Export Plug-In . SVG Version: 6.00 Build 0)  -->
<svg version="1.1" id="Layer_1" xmlns="http://www.w3.org/2000/svg" xmlns:xlink="http://www.w3.org/1999/xlink" x="0px" y="0px"
	 viewBox="0 0 595.3 280.6" style="enable-background:new 0 0 595.3 280.6;" xml:space="preserve">
<style type="text/css">
	.st0{fill:#232323;}
	.st1{fill:#FFFFFF;}
</style>
<path class="st0" d="M267.8,95h-67.6c-4.4,0-8,3.6-8,8v67.6c0,4.4,3.6,8,8,8h67.6c4.4,0,8-3.6,8-8V103C275.8,98.6,272.2,95,267.8,95
	z"/>
<g>
	<path class="st1" d="M232.3,157.8h-17.1c-3.2,0-5.9-1.1-8-3.3c-2.2-2.1-3.3-4.9-3.3-8.6c0-2.1,0.6-4.2,1.6-6.1c1.1-1.8,2.8-3,5-3.6
		v-0.1c-1.2-0.6-2.2-1.3-3-2c-0.9-0.7-1.4-1.4-1.9-2.1c-0.9-1.5-1.2-3.2-1.2-4.9c0-3.4,1-6.1,3.1-8.2c2-2,5-3.2,9-3.2h15.8
		L232.3,157.8L232.3,157.8z M217.2,121.4c-2.2,0-3.9,0.6-4.9,1.7c-1.1,1.2-1.6,2.6-1.6,4.3s0.5,3.2,1.6,4.3c1,1.2,2.7,1.8,4.9,1.8h9
		v-12.1H217.2z M216.6,139.2c-2.3,0-4,0.7-5,1.9c-1.1,1.2-1.6,2.7-1.6,4.4s0.6,3.2,1.6,4.4c1,1.3,2.7,2,5,2h9.6v-12.7
		C226.2,139.2,216.6,139.2,216.6,139.2z"/>
	<path class="st1" d="M235.7,115.8h14.8c1.6,0,3.2,0.2,4.7,0.4c1.5,0.4,3,1.2,4.5,2.5c1.3,0.9,2.3,2.3,3.2,4c0.9,1.7,1.3,3.7,1.3,6
		c0,3.2-1,6-3.2,8.5c-2.2,2.7-5.4,4.1-9.6,4.2H242v16.5h-6.1v-42h-0.2V115.8z M241.9,135.4h9.1c2.3,0,4-0.8,5.2-2.2
		c1.1-1.4,1.6-2.9,1.6-4.6c0-1.4-0.3-2.6-0.7-3.6c-0.4-0.9-1.1-1.5-2-2c-1.3-0.9-2.7-1.2-4.4-1.2h-8.9L241.9,135.4L241.9,135.4z"/>
</g>
<path class="st0" d="M413.9,95h-67.6c-4.4,0-8,3.6-8,8v67.6c0,4.4,3.6,8,8,8h67.6c4.4,0,8-3.6,8-8V103C421.9,98.6,418.3,95,413.9,95
	z"/>
<g>
	<path class="st1" d="M377.7,162.4h-19c-3.5,0-6.5-1.2-8.9-3.7c-2.5-2.4-3.7-5.5-3.7-9.5c0-2.4,0.7-4.6,1.8-6.7c1.2-2,3.1-3.3,5.6-4
		v-0.1c-1.3-0.7-2.5-1.4-3.3-2.2c-0.9-0.8-1.6-1.5-2.1-2.4c-0.9-1.7-1.3-3.6-1.3-5.5c0-3.8,1.1-6.8,3.4-9.1c2.3-2.3,5.6-3.5,10-3.5
		h17.5V162.4z M361,122c-2.5,0-4.3,0.7-5.5,1.9c-1.2,1.3-1.8,2.9-1.8,4.8c0,1.9,0.6,3.5,1.8,4.7c1.1,1.3,3,2,5.5,2h9.9V122H361z
		 M360.3,141.7c-2.6,0-4.4,0.8-5.6,2.1c-1.2,1.3-1.8,3-1.8,4.9c0,1.9,0.7,3.6,1.8,4.9c1.1,1.4,3,2.2,5.6,2.2h10.6v-14.1
		C370.9,141.7,360.3,141.7,360.3,141.7z"/>
	<path class="st1" d="M398.9,115.7c1.8,0,3.5,0.2,5.2,0.5c1.7,0.5,3.3,1.3,5,2.7c1.4,1,2.6,2.6,3.5,4.4c0.9,1.9,1.4,4.1,1.4,6.6
		c0,3.5-1.1,6.6-3.5,9.5c-2.5,3-6,4.5-10.6,4.6h-10.4v35.5h-6.8v-63.9H398.9z M389.4,137.4h10.1c2.6,0,4.4-0.9,5.8-2.5
		c1.2-1.5,1.8-3.2,1.8-5.1c0-1.6-0.3-2.9-0.8-4c-0.5-0.9-1.2-1.7-2.2-2.3c-1.4-0.9-3-1.3-4.9-1.3h-9.8V137.4z"/>
</g>
</svg>
