<?xml version="1.0" encoding="utf-8"?>
<!-- Generator: Adobe Illustrator 21.1.0, SVG Export Plug-In . SVG Version: 6.00 Build 0)  -->
<svg version="1.1" id="Layer_1" xmlns="http://www.w3.org/2000/svg" xmlns:xlink="http://www.w3.org/1999/xlink" x="0px" y="0px"
	 viewBox="0 0 75.2 24.1" style="enable-background:new 0 0 75.2 24.1;" xml:space="preserve">
<style type="text/css">
	.st0{fill:#FFFFFF;}
</style>
<g>
	<polygon class="st0" points="21.5,17.3 14.5,17.3 14.5,17.5 14.5,17.8 21.5,17.8 21.5,17.5 	"/>
	<polygon class="st0" points="52.6,17.3 52.6,17.5 52.6,17.8 59.8,17.8 59.8,17.5 59.8,17.3 	"/>
	<g>
		<path class="st0" d="M12.8,13h-3c-0.6,0-1-0.2-1.4-0.6C8,12,7.8,11.5,7.8,10.9c0-0.4,0.1-0.8,0.3-1.1S8.6,9.3,9,9.2l0,0
			C8.8,9.1,8.6,9,8.5,8.9C8.4,8.8,8.3,8.6,8.2,8.5C8.1,8.2,8,7.9,8,7.6c0-0.6,0.1-1,0.5-1.4c0.4-0.3,0.9-0.5,1.6-0.5h2.7V13z
			 M10.1,6.7C9.7,6.7,9.4,6.8,9.2,7C9,7.3,8.9,7.5,8.9,7.8S9,8.3,9.2,8.5s0.5,0.3,0.9,0.3h1.6V6.7C11.7,6.7,10.1,6.7,10.1,6.7z
			 M11.7,9.8H10c-0.4,0-0.7,0.1-0.9,0.3s-0.3,0.5-0.3,0.8s0.1,0.6,0.3,0.8S9.6,12,10,12h1.7V9.8L11.7,9.8z"/>
		<path class="st0" d="M17.7,11.4H15L14.5,13h-1.1L16,5.7h0.9l2.6,7.3h-1.1L17.7,11.4z M17.4,10.4l-1-3.2l0,0l-1,3.2H17.4z"/>
		<path class="st0" d="M25,10.9c-0.2,0.7-0.5,1.2-0.9,1.6c-0.5,0.4-1,0.5-1.6,0.5s-1-0.2-1.4-0.4c-0.4-0.3-0.7-0.6-0.8-0.9
			c-0.1-0.1-0.1-0.2-0.1-0.3s-0.1-0.2-0.1-0.4c0-0.3-0.1-0.9-0.1-1.7c0-0.9,0-1.4,0.1-1.7c0.1-0.3,0.1-0.5,0.2-0.7
			c0.2-0.3,0.4-0.6,0.8-0.9s0.8-0.4,1.4-0.4c0.7,0,1.2,0.2,1.7,0.6c0.4,0.4,0.7,0.9,0.8,1.5h-1.1c-0.1-0.3-0.2-0.5-0.5-0.8
			c-0.2-0.2-0.5-0.3-0.9-0.3c-0.3,0-0.5,0.1-0.7,0.2S21.5,7,21.4,7.2c-0.1,0.2-0.2,0.4-0.3,0.6C21,8.1,21,8.6,21,9.3s0,1.2,0.1,1.5
			c0,0.3,0.1,0.5,0.3,0.6c0.1,0.2,0.3,0.3,0.4,0.4c0.2,0.1,0.4,0.2,0.7,0.2c0.6,0,1.1-0.3,1.4-1H25V10.9z"/>
		<path class="st0" d="M25.9,5.7H27v3.8l0,0l2.9-3.8h1.3l-2.3,2.9l2.5,4.4h-1.3l-1.9-3.6L27,10.8V13h-1.1V5.7z"/>
		<path class="st0" d="M32.4,5.7H35c0.3,0,0.5,0,0.8,0.1c0.2,0,0.5,0.2,0.7,0.4s0.4,0.4,0.5,0.7c0.1,0.3,0.2,0.6,0.2,1
			c0,0.5-0.2,1-0.6,1.5c-0.4,0.5-0.9,0.7-1.7,0.7h-1.6V13h-1.1V5.7H32.4z M33.4,9.1H35c0.4,0,0.7-0.1,0.9-0.4
			c0.2-0.2,0.3-0.5,0.3-0.8c0-0.2,0-0.5-0.1-0.6C36,7.1,35.9,7,35.8,6.9c-0.2-0.1-0.5-0.2-0.8-0.2h-1.6V9.1z"/>
		<path class="st0" d="M41.3,11.4h-2.7L38.1,13H37l2.6-7.3h0.9L43,13h-1.1L41.3,11.4z M41,10.4l-1-3.2l0,0l-1,3.2H41z"/>
		<path class="st0" d="M48.6,10.9c-0.2,0.7-0.5,1.2-0.9,1.6c-0.5,0.4-1,0.5-1.6,0.5s-1-0.2-1.4-0.4c-0.4-0.3-0.7-0.6-0.8-0.9
			c-0.1-0.1-0.1-0.2-0.1-0.3s-0.1-0.2-0.1-0.4c0-0.3-0.1-0.9-0.1-1.7c0-0.9,0-1.4,0.1-1.7c0.1-0.3,0.1-0.5,0.2-0.7
			C44,6.6,44.3,6.3,44.7,6s0.8-0.4,1.4-0.4c0.7,0,1.2,0.2,1.7,0.6c0.4,0.4,0.7,0.9,0.8,1.5h-1.1C47.3,7.5,47.2,7.2,47,7
			s-0.5-0.3-0.9-0.3c-0.3,0-0.5,0.1-0.7,0.2C45.2,7,45.1,7.1,45,7.3c-0.1,0.2-0.2,0.4-0.3,0.6c-0.1,0.3-0.1,0.8-0.1,1.5
			s0,1.2,0.1,1.5c0,0.3,0.1,0.5,0.3,0.6c0.1,0.2,0.3,0.3,0.4,0.4c0.2,0.1,0.4,0.2,0.7,0.2c0.6,0,1.1-0.3,1.4-1h1.1V10.9z"/>
		<path class="st0" d="M49.5,5.7h1.1v3.8l0,0l2.9-3.8h1.3l-2.3,2.9L55,13h-1.3l-1.9-3.6l-1.2,1.4V13h-1.1V5.7z"/>
		<path class="st0" d="M56,5.7h4.5v1H57v2.1h3v1h-3V12h3.5v1H56V5.7z"/>
		<path class="st0" d="M61.7,5.7h2.8c0.6,0,1.1,0.2,1.4,0.5c0.4,0.4,0.7,0.9,0.7,1.6c0,1-0.5,1.7-1.4,2l1.6,3.2h-1.3L64,9.9h-1.4V13
			h-1.1V5.7H61.7z M62.8,8.9h1.6c0.4,0,0.7-0.1,0.9-0.4c0.2-0.2,0.3-0.5,0.3-0.8c0-0.4-0.1-0.7-0.4-0.8c-0.2-0.2-0.4-0.2-0.8-0.2
			h-1.7L62.8,8.9L62.8,8.9z"/>
	</g>
	<g>
		<path class="st0" d="M29.2,17.4h-1.7v1.9h-0.6v-4.4h0.6v1.9h1.7v-1.9h0.6v4.4h-0.6V17.4z"/>
		<path class="st0" d="M30.8,17.2c0-0.5,0-0.9,0-1c0-0.2,0.1-0.3,0.1-0.4c0.1-0.2,0.3-0.4,0.5-0.5c0.2-0.2,0.5-0.2,0.8-0.2
			c0.3,0,0.6,0.1,0.9,0.2c0.2,0.2,0.4,0.3,0.5,0.5c0.1,0.1,0.1,0.2,0.1,0.4c0,0.2,0,0.5,0,1s0,0.8,0,1s-0.1,0.3-0.1,0.4
			c-0.1,0.2-0.3,0.4-0.5,0.5c-0.2,0.2-0.5,0.2-0.9,0.3c-0.3,0-0.6-0.1-0.8-0.3c-0.2-0.2-0.4-0.3-0.5-0.5c0-0.1-0.1-0.1-0.1-0.2
			s0-0.1-0.1-0.2C30.8,18,30.8,17.7,30.8,17.2z M31.4,17.2c0,0.4,0,0.7,0,0.9c0,0.2,0.1,0.3,0.2,0.4s0.2,0.2,0.3,0.2
			c0.1,0.1,0.2,0.1,0.4,0.1s0.3,0,0.4-0.1c0.1-0.1,0.2-0.1,0.3-0.2s0.1-0.2,0.2-0.4c0-0.2,0-0.4,0-0.9c0-0.4,0-0.7,0-0.9
			c0-0.2-0.1-0.3-0.2-0.4c-0.1-0.1-0.2-0.2-0.3-0.2c-0.1-0.1-0.2-0.1-0.4-0.1s-0.3,0-0.4,0.1s-0.2,0.1-0.3,0.2
			c-0.1,0.1-0.1,0.2-0.2,0.4C31.4,16.4,31.4,16.7,31.4,17.2z"/>
		<path class="st0" d="M34.8,18.3c0.3,0.3,0.7,0.4,1.2,0.4c0.6,0,0.8-0.2,0.8-0.6c0-0.3-0.2-0.5-0.6-0.6c-0.2,0-0.4-0.1-0.6-0.1
			c-0.4-0.1-0.6-0.2-0.8-0.4c-0.2-0.2-0.3-0.5-0.3-0.8c0-0.4,0.1-0.7,0.4-0.9c0.2-0.2,0.6-0.4,1-0.4c0.5,0,1,0.2,1.4,0.5L37,15.9
			c-0.3-0.2-0.7-0.3-1.1-0.3c-0.2,0-0.4,0.1-0.5,0.2c-0.1,0.1-0.2,0.3-0.2,0.5c0,0.1,0,0.2,0.1,0.3c0.1,0.1,0.3,0.2,0.5,0.2
			c0.1,0,0.3,0,0.5,0.1c0.4,0.1,0.7,0.2,0.9,0.4c0.2,0.2,0.3,0.5,0.3,0.8c0,0.8-0.5,1.3-1.5,1.3c-0.6,0-1.2-0.2-1.6-0.6L34.8,18.3z"
			/>
		<path class="st0" d="M39,15.5h-1.2v-0.6h3v0.6h-1.2v3.8H39V15.5z"/>
		<path class="st0" d="M41.4,14.9h2.7v0.6H42v1.3h1.8v0.6H42v1.3h2.1v0.6h-2.7C41.4,19.3,41.4,14.9,41.4,14.9z"/>
		<path class="st0" d="M44.9,14.9h0.6v3.8h2.1v0.6h-2.7C44.9,19.3,44.9,14.9,44.9,14.9z"/>
	</g>
</g>
</svg>
