<?xml version="1.0" encoding="utf-8"?>
<!-- Generator: Adobe Illustrator 21.1.0, SVG Export Plug-In . SVG Version: 6.00 Build 0)  -->
<svg version="1.1" id="Layer_1" xmlns="http://www.w3.org/2000/svg" xmlns:xlink="http://www.w3.org/1999/xlink" x="0px" y="0px"
	 viewBox="0 0 58 86" style="enable-background:new 0 0 58 86;" xml:space="preserve">
<style type="text/css">
	.st0{fill:#232323;}
	.st1{fill:#FFFFFF;}
</style>
<g>
	<path class="st0" d="M57.8,28.8C57.8,12.9,44.9,0,29,0S0.2,12.9,0.2,28.8C0.2,49.7,29,86,29,86S57.8,49.7,57.8,28.8z"/>
	<g>
		<path class="st1" d="M27.8,39.8h-9.3c-1.7,0-3.2-0.6-4.4-1.8c-1.2-1.2-1.8-2.7-1.8-4.7c0-1.2,0.3-2.3,0.9-3.3c0.6-1,1.5-1.6,2.7-2
			v0c-0.7-0.3-1.2-0.7-1.6-1.1c-0.5-0.4-0.8-0.7-1-1.2c-0.5-0.8-0.7-1.8-0.7-2.7c0-1.9,0.6-3.3,1.7-4.5c1.1-1.1,2.7-1.7,4.9-1.7h8.6
			V39.8z M19.6,20c-1.2,0-2.1,0.3-2.7,0.9c-0.6,0.7-0.9,1.4-0.9,2.4c0,0.9,0.3,1.7,0.9,2.3c0.6,0.7,1.5,1,2.7,1h4.9V20H19.6z
			 M19.3,29.6c-1.3,0-2.2,0.4-2.7,1c-0.6,0.7-0.9,1.5-0.9,2.4c0,0.9,0.3,1.8,0.9,2.4c0.6,0.7,1.5,1.1,2.7,1.1h5.2v-6.9
			C24.5,29.6,19.3,29.6,19.3,29.6z"/>
		<path class="st1" d="M38.3,16.9c0.9,0,1.7,0.1,2.6,0.2c0.8,0.2,1.6,0.7,2.5,1.3c0.7,0.5,1.3,1.3,1.7,2.2c0.5,0.9,0.7,2,0.7,3.3
			c0,1.7-0.6,3.3-1.7,4.6c-1.2,1.5-2.9,2.2-5.2,2.3h-5.1V50h-3.3V16.9H38.3z M33.6,27.6h5c1.3,0,2.2-0.4,2.8-1.2
			c0.6-0.7,0.9-1.6,0.9-2.5c0-0.8-0.1-1.4-0.4-2c-0.2-0.5-0.6-0.8-1.1-1.1c-0.7-0.5-1.5-0.7-2.4-0.7h-4.8V27.6z"/>
	</g>
</g>
</svg>
